<mxfile host="app.diagrams.net" modified="2024-05-13T18:03:02.955Z" agent="Mozilla/5.0 (Windows NT 10.0; Win64; x64) AppleWebKit/537.36 (KHTML, like Gecko) Chrome/124.0.0.0 Safari/537.36" etag="eNQfd_ROb1x_kZIjy23B" version="24.4.0" type="github">
  <diagram name="PÃ¡gina-1" id="odFwpj1P_mLRmx9RzsQF">
    <mxGraphModel dx="3341" dy="868" grid="1" gridSize="10" guides="1" tooltips="1" connect="1" arrows="1" fold="1" page="1" pageScale="1" pageWidth="827" pageHeight="1169" math="0" shadow="0">
      <root>
        <mxCell id="0" />
        <mxCell id="1" parent="0" />
        <mxCell id="1v43-9IHqfWxljv2G6Mm-1" value="&lt;p style=&quot;margin:0px;margin-top:4px;text-align:center;&quot;&gt;&amp;lt;&amp;lt;Functional Requirements&amp;gt;&amp;gt;&lt;br&gt;&lt;b&gt;MyClinic Services&lt;/b&gt;&lt;/p&gt;&lt;hr&gt;&lt;p&gt;&lt;/p&gt;&lt;p style=&quot;margin:0px;margin-left:8px;text-align:left;&quot;&gt;&lt;br&gt;&lt;/p&gt;" style="shape=rect;overflow=fill;html=1;whiteSpace=wrap;align=center;" vertex="1" parent="1">
          <mxGeometry x="-370" y="130" width="200" height="60" as="geometry" />
        </mxCell>
        <mxCell id="1v43-9IHqfWxljv2G6Mm-2" value="MyClinic" style="shape=folder;fontStyle=1;spacingTop=10;tabWidth=40;tabHeight=14;tabPosition=left;html=1;whiteSpace=wrap;" vertex="1" parent="1">
          <mxGeometry x="400" y="10" width="70" height="50" as="geometry" />
        </mxCell>
        <mxCell id="1v43-9IHqfWxljv2G6Mm-4" value="&lt;p style=&quot;margin:0px;margin-top:4px;text-align:center;&quot;&gt;&amp;lt;&amp;lt;Non-Functional Requirements&amp;gt;&amp;gt;&lt;br&gt;&lt;b&gt;MyClinic NFR&lt;/b&gt;&lt;/p&gt;&lt;hr&gt;&lt;p&gt;&lt;/p&gt;&lt;p style=&quot;margin:0px;margin-left:8px;text-align:left;&quot;&gt;&lt;br&gt;&lt;/p&gt;" style="shape=rect;overflow=fill;html=1;whiteSpace=wrap;align=center;" vertex="1" parent="1">
          <mxGeometry x="1060" y="130" width="200" height="60" as="geometry" />
        </mxCell>
        <mxCell id="1v43-9IHqfWxljv2G6Mm-42" value="&lt;p style=&quot;margin:0px;margin-top:4px;text-align:center;&quot;&gt;&amp;lt;&amp;lt;Func Req&amp;gt;&amp;gt;&lt;br&gt;&lt;b&gt;Register Patient&lt;/b&gt;&lt;/p&gt;&lt;hr&gt;&lt;p&gt;&lt;/p&gt;&lt;p style=&quot;margin:0px;margin-left:8px;text-align:left;&quot;&gt;text=&quot;The system shall do&quot;&lt;br&gt;Id=&quot;1&quot;&lt;/p&gt;" style="shape=rect;overflow=fill;html=1;whiteSpace=wrap;align=center;" vertex="1" parent="1">
          <mxGeometry x="-1490" y="380" width="200" height="100" as="geometry" />
        </mxCell>
        <mxCell id="1v43-9IHqfWxljv2G6Mm-43" value="&lt;p style=&quot;margin:0px;margin-top:4px;text-align:center;&quot;&gt;&amp;lt;&amp;lt;Func Req&amp;gt;&amp;gt;&lt;br&gt;&lt;b&gt;Basic Features&lt;/b&gt;&lt;/p&gt;&lt;hr&gt;&lt;p&gt;&lt;/p&gt;&lt;p style=&quot;margin:0px;margin-left:8px;text-align:left;&quot;&gt;&lt;br&gt;&lt;/p&gt;" style="shape=rect;overflow=fill;html=1;whiteSpace=wrap;align=center;" vertex="1" parent="1">
          <mxGeometry x="-690" y="250" width="200" height="60" as="geometry" />
        </mxCell>
        <mxCell id="1v43-9IHqfWxljv2G6Mm-44" value="&lt;p style=&quot;margin:0px;margin-top:4px;text-align:center;&quot;&gt;&amp;lt;&amp;lt;Func Req&amp;gt;&amp;gt;&lt;br&gt;&lt;b&gt;Existing Features&lt;/b&gt;&lt;/p&gt;&lt;hr&gt;&lt;p&gt;&lt;/p&gt;&lt;p style=&quot;margin:0px;margin-left:8px;text-align:left;&quot;&gt;&lt;br&gt;&lt;/p&gt;" style="shape=rect;overflow=fill;html=1;whiteSpace=wrap;align=center;" vertex="1" parent="1">
          <mxGeometry x="-370" y="250" width="200" height="60" as="geometry" />
        </mxCell>
        <mxCell id="1v43-9IHqfWxljv2G6Mm-45" value="&lt;p style=&quot;margin:0px;margin-top:4px;text-align:center;&quot;&gt;&amp;lt;&amp;lt;Func Req&amp;gt;&amp;gt;&lt;br&gt;&lt;b&gt;New Features&lt;/b&gt;&lt;/p&gt;&lt;hr&gt;&lt;p&gt;&lt;/p&gt;&lt;p style=&quot;margin:0px;margin-left:8px;text-align:left;&quot;&gt;&lt;br&gt;&lt;/p&gt;" style="shape=rect;overflow=fill;html=1;whiteSpace=wrap;align=center;" vertex="1" parent="1">
          <mxGeometry x="-50" y="250" width="200" height="60" as="geometry" />
        </mxCell>
        <mxCell id="1v43-9IHqfWxljv2G6Mm-47" value="&lt;p style=&quot;margin:0px;margin-top:4px;text-align:center;&quot;&gt;&amp;lt;&amp;lt;Func Req&amp;gt;&amp;gt;&lt;br&gt;&lt;b&gt;Register Doctor&lt;/b&gt;&lt;/p&gt;&lt;hr&gt;&lt;p&gt;&lt;/p&gt;&lt;p style=&quot;margin:0px;margin-left:8px;text-align:left;&quot;&gt;text=&quot;The system shall do&quot;&lt;br&gt;Id=&quot;2&quot;&lt;/p&gt;" style="shape=rect;overflow=fill;html=1;whiteSpace=wrap;align=center;" vertex="1" parent="1">
          <mxGeometry x="-1270" y="380" width="200" height="100" as="geometry" />
        </mxCell>
        <mxCell id="1v43-9IHqfWxljv2G6Mm-48" value="&lt;p style=&quot;margin:0px;margin-top:4px;text-align:center;&quot;&gt;&amp;lt;&amp;lt;Func Req&amp;gt;&amp;gt;&lt;br&gt;&lt;b&gt;Schedule Appointment&lt;/b&gt;&lt;/p&gt;&lt;hr&gt;&lt;p&gt;&lt;/p&gt;&lt;p style=&quot;margin:0px;margin-left:8px;text-align:left;&quot;&gt;text=&quot;The system shall do&quot;&lt;br&gt;Id=&quot;3&quot;&lt;/p&gt;" style="shape=rect;overflow=fill;html=1;whiteSpace=wrap;align=center;" vertex="1" parent="1">
          <mxGeometry x="-1050" y="380" width="200" height="100" as="geometry" />
        </mxCell>
        <mxCell id="1v43-9IHqfWxljv2G6Mm-49" value="&lt;p style=&quot;margin:0px;margin-top:4px;text-align:center;&quot;&gt;&amp;lt;&amp;lt;Func Req&amp;gt;&amp;gt;&lt;br&gt;&lt;b&gt;Schedule Exam&lt;/b&gt;&lt;/p&gt;&lt;hr&gt;&lt;p&gt;&lt;/p&gt;&lt;p style=&quot;margin:0px;margin-left:8px;text-align:left;&quot;&gt;text=&quot;The system shall do&quot;&lt;br&gt;Id=&quot;4&quot;&lt;/p&gt;" style="shape=rect;overflow=fill;html=1;whiteSpace=wrap;align=center;" vertex="1" parent="1">
          <mxGeometry x="-830" y="380" width="200" height="100" as="geometry" />
        </mxCell>
        <mxCell id="1v43-9IHqfWxljv2G6Mm-50" value="&lt;p style=&quot;margin:0px;margin-top:4px;text-align:center;&quot;&gt;&amp;lt;&amp;lt;Func Req&amp;gt;&amp;gt;&lt;br&gt;&lt;b&gt;Check-In&lt;/b&gt;&lt;/p&gt;&lt;hr&gt;&lt;p&gt;&lt;/p&gt;&lt;p style=&quot;margin:0px;margin-left:8px;text-align:left;&quot;&gt;text=&quot;The system shall do&quot;&lt;br&gt;Id=&quot;5&quot;&lt;/p&gt;" style="shape=rect;overflow=fill;html=1;whiteSpace=wrap;align=center;" vertex="1" parent="1">
          <mxGeometry x="-610" y="380" width="200" height="100" as="geometry" />
        </mxCell>
        <mxCell id="1v43-9IHqfWxljv2G6Mm-51" value="" style="rounded=0;html=1;labelBackgroundColor=none;endArrow=none;edgeStyle=elbowEdgeStyle;elbow=vertical;startArrow=sysMLPackCont;startSize=12;" edge="1" parent="1" source="1v43-9IHqfWxljv2G6Mm-43" target="1v43-9IHqfWxljv2G6Mm-42">
          <mxGeometry relative="1" as="geometry">
            <mxPoint x="-1100" y="280" as="sourcePoint" />
            <mxPoint x="-1410" y="340" as="targetPoint" />
            <Array as="points">
              <mxPoint x="-980" y="340" />
            </Array>
          </mxGeometry>
        </mxCell>
        <mxCell id="1v43-9IHqfWxljv2G6Mm-52" value="" style="rounded=0;html=1;labelBackgroundColor=none;endArrow=none;edgeStyle=elbowEdgeStyle;elbow=vertical;startArrow=sysMLPackCont;startSize=12;" edge="1" parent="1" source="1v43-9IHqfWxljv2G6Mm-43" target="1v43-9IHqfWxljv2G6Mm-47">
          <mxGeometry relative="1" as="geometry">
            <mxPoint x="-570" y="340" as="sourcePoint" />
            <mxPoint x="-1330" y="220" as="targetPoint" />
            <Array as="points">
              <mxPoint x="-880" y="340" />
            </Array>
          </mxGeometry>
        </mxCell>
        <mxCell id="1v43-9IHqfWxljv2G6Mm-53" value="" style="rounded=0;html=1;labelBackgroundColor=none;endArrow=none;edgeStyle=elbowEdgeStyle;elbow=vertical;startArrow=sysMLPackCont;startSize=12;" edge="1" parent="1" source="1v43-9IHqfWxljv2G6Mm-43" target="1v43-9IHqfWxljv2G6Mm-48">
          <mxGeometry relative="1" as="geometry">
            <mxPoint x="-540" y="320" as="sourcePoint" />
            <mxPoint x="-1120" y="390" as="targetPoint" />
            <Array as="points">
              <mxPoint x="-770" y="340" />
            </Array>
          </mxGeometry>
        </mxCell>
        <mxCell id="1v43-9IHqfWxljv2G6Mm-54" value="" style="rounded=0;html=1;labelBackgroundColor=none;endArrow=none;edgeStyle=elbowEdgeStyle;elbow=vertical;startArrow=sysMLPackCont;startSize=12;" edge="1" parent="1" target="1v43-9IHqfWxljv2G6Mm-49">
          <mxGeometry relative="1" as="geometry">
            <mxPoint x="-590.11" y="310.00000000000006" as="sourcePoint" />
            <mxPoint x="-590.11" y="380" as="targetPoint" />
            <Array as="points">
              <mxPoint x="-590.11" y="340" />
              <mxPoint x="-620.11" y="360" />
            </Array>
          </mxGeometry>
        </mxCell>
        <mxCell id="1v43-9IHqfWxljv2G6Mm-55" value="" style="rounded=0;html=1;labelBackgroundColor=none;endArrow=none;edgeStyle=elbowEdgeStyle;elbow=vertical;startArrow=sysMLPackCont;startSize=12;" edge="1" parent="1" source="1v43-9IHqfWxljv2G6Mm-43" target="1v43-9IHqfWxljv2G6Mm-50">
          <mxGeometry relative="1" as="geometry">
            <mxPoint x="-480.11" y="310.00000000000006" as="sourcePoint" />
            <mxPoint x="-620" y="380" as="targetPoint" />
            <Array as="points">
              <mxPoint x="-480.11" y="340" />
              <mxPoint x="-510.11" y="360" />
            </Array>
          </mxGeometry>
        </mxCell>
        <mxCell id="1v43-9IHqfWxljv2G6Mm-56" value="&lt;p style=&quot;margin:0px;margin-top:4px;text-align:center;&quot;&gt;&amp;lt;&amp;lt;Func Req&amp;gt;&amp;gt;&lt;br&gt;&lt;b&gt;Schedule online appointment&lt;/b&gt;&lt;/p&gt;&lt;hr&gt;&lt;p&gt;&lt;/p&gt;&lt;p style=&quot;margin:0px;margin-left:8px;text-align:left;&quot;&gt;text=&quot;The system shall do&quot;&lt;br&gt;Id=&quot;6&quot;&lt;/p&gt;" style="shape=rect;overflow=fill;html=1;whiteSpace=wrap;align=center;" vertex="1" parent="1">
          <mxGeometry x="-1030" y="510" width="200" height="100" as="geometry" />
        </mxCell>
        <mxCell id="1v43-9IHqfWxljv2G6Mm-57" value="&lt;p style=&quot;margin:0px;margin-top:4px;text-align:center;&quot;&gt;&amp;lt;&amp;lt;Func Req&amp;gt;&amp;gt;&lt;br&gt;&lt;b&gt;See list of doctors&lt;/b&gt;&lt;/p&gt;&lt;hr&gt;&lt;p&gt;&lt;/p&gt;&lt;p style=&quot;margin:0px;margin-left:8px;text-align:left;&quot;&gt;text=&quot;The system shall do&quot;&lt;br&gt;Id=&quot;7&quot;&lt;/p&gt;" style="shape=rect;overflow=fill;html=1;whiteSpace=wrap;align=center;" vertex="1" parent="1">
          <mxGeometry x="-810" y="510" width="200" height="100" as="geometry" />
        </mxCell>
        <mxCell id="1v43-9IHqfWxljv2G6Mm-58" value="&lt;p style=&quot;margin:0px;margin-top:4px;text-align:center;&quot;&gt;&amp;lt;&amp;lt;Func Req&amp;gt;&amp;gt;&lt;br&gt;&lt;b&gt;Doctor sees patient informations&lt;/b&gt;&lt;/p&gt;&lt;hr&gt;&lt;p&gt;&lt;/p&gt;&lt;p style=&quot;margin:0px;margin-left:8px;text-align:left;&quot;&gt;text=&quot;The system shall do&quot;&lt;br&gt;Id=&quot;8&quot;&lt;/p&gt;" style="shape=rect;overflow=fill;html=1;whiteSpace=wrap;align=center;" vertex="1" parent="1">
          <mxGeometry x="-590" y="510" width="200" height="100" as="geometry" />
        </mxCell>
        <mxCell id="1v43-9IHqfWxljv2G6Mm-59" value="&lt;p style=&quot;margin:0px;margin-top:4px;text-align:center;&quot;&gt;&amp;lt;&amp;lt;Func Req&amp;gt;&amp;gt;&lt;br&gt;&lt;b&gt;See list of clinics&lt;/b&gt;&lt;/p&gt;&lt;hr&gt;&lt;p&gt;&lt;/p&gt;&lt;p style=&quot;margin:0px;margin-left:8px;text-align:left;&quot;&gt;text=&quot;The system shall do&quot;&lt;br&gt;Id=&quot;9&quot;&lt;/p&gt;" style="shape=rect;overflow=fill;html=1;whiteSpace=wrap;align=center;" vertex="1" parent="1">
          <mxGeometry x="-370" y="510" width="200" height="100" as="geometry" />
        </mxCell>
        <mxCell id="1v43-9IHqfWxljv2G6Mm-60" value="&lt;p style=&quot;margin:0px;margin-top:4px;text-align:center;&quot;&gt;&amp;lt;&amp;lt;Func Req&amp;gt;&amp;gt;&lt;br&gt;&lt;b&gt;Send Appointment reminders&lt;/b&gt;&lt;/p&gt;&lt;hr&gt;&lt;p&gt;&lt;/p&gt;&lt;p style=&quot;margin:0px;margin-left:8px;text-align:left;&quot;&gt;text=&quot;The system shall do&quot;&lt;br&gt;Id=&quot;10&quot;&lt;/p&gt;" style="shape=rect;overflow=fill;html=1;whiteSpace=wrap;align=center;" vertex="1" parent="1">
          <mxGeometry x="-150" y="510" width="200" height="100" as="geometry" />
        </mxCell>
        <mxCell id="1v43-9IHqfWxljv2G6Mm-61" value="&lt;p style=&quot;margin:0px;margin-top:4px;text-align:center;&quot;&gt;&amp;lt;&amp;lt;Func Req&amp;gt;&amp;gt;&lt;br&gt;&lt;b&gt;See list of appointments&lt;/b&gt;&lt;/p&gt;&lt;hr&gt;&lt;p&gt;&lt;/p&gt;&lt;p style=&quot;margin:0px;margin-left:8px;text-align:left;&quot;&gt;text=&quot;The system shall do&quot;&lt;br&gt;Id=&quot;11&quot;&lt;/p&gt;" style="shape=rect;overflow=fill;html=1;whiteSpace=wrap;align=center;" vertex="1" parent="1">
          <mxGeometry x="70" y="510" width="200" height="100" as="geometry" />
        </mxCell>
        <mxCell id="1v43-9IHqfWxljv2G6Mm-62" value="&lt;p style=&quot;margin:0px;margin-top:4px;text-align:center;&quot;&gt;&amp;lt;&amp;lt;Func Req&amp;gt;&amp;gt;&lt;br&gt;&lt;b&gt;Prescribe medicine&lt;/b&gt;&lt;/p&gt;&lt;hr&gt;&lt;p&gt;&lt;/p&gt;&lt;p style=&quot;margin:0px;margin-left:8px;text-align:left;&quot;&gt;text=&quot;The system shall do&quot;&lt;br&gt;Id=&quot;12&quot;&lt;/p&gt;" style="shape=rect;overflow=fill;html=1;whiteSpace=wrap;align=center;" vertex="1" parent="1">
          <mxGeometry x="290" y="510" width="200" height="100" as="geometry" />
        </mxCell>
        <mxCell id="1v43-9IHqfWxljv2G6Mm-63" value="" style="rounded=0;html=1;labelBackgroundColor=none;endArrow=none;edgeStyle=elbowEdgeStyle;elbow=vertical;startArrow=sysMLPackCont;startSize=12;exitX=0.5;exitY=1;exitDx=0;exitDy=0;entryX=0.407;entryY=-0.039;entryDx=0;entryDy=0;entryPerimeter=0;" edge="1" parent="1" source="1v43-9IHqfWxljv2G6Mm-44" target="1v43-9IHqfWxljv2G6Mm-62">
          <mxGeometry relative="1" as="geometry">
            <mxPoint x="-280" y="350" as="sourcePoint" />
            <mxPoint x="-170" y="420" as="targetPoint" />
            <Array as="points">
              <mxPoint x="390" y="490" />
              <mxPoint x="-200.11" y="400" />
            </Array>
          </mxGeometry>
        </mxCell>
        <mxCell id="1v43-9IHqfWxljv2G6Mm-64" value="" style="rounded=0;html=1;labelBackgroundColor=none;endArrow=none;edgeStyle=elbowEdgeStyle;elbow=vertical;startArrow=sysMLPackCont;startSize=12;" edge="1" parent="1" target="1v43-9IHqfWxljv2G6Mm-61">
          <mxGeometry relative="1" as="geometry">
            <mxPoint x="-270" y="310" as="sourcePoint" />
            <mxPoint x="-490" y="590" as="targetPoint" />
            <Array as="points">
              <mxPoint x="-380" y="490" />
            </Array>
          </mxGeometry>
        </mxCell>
        <mxCell id="1v43-9IHqfWxljv2G6Mm-65" value="" style="rounded=0;html=1;labelBackgroundColor=none;endArrow=none;edgeStyle=elbowEdgeStyle;elbow=vertical;startArrow=sysMLPackCont;startSize=12;" edge="1" parent="1" source="1v43-9IHqfWxljv2G6Mm-44" target="1v43-9IHqfWxljv2G6Mm-60">
          <mxGeometry relative="1" as="geometry">
            <mxPoint x="-310" y="310" as="sourcePoint" />
            <mxPoint x="-560" y="510" as="targetPoint" />
            <Array as="points">
              <mxPoint x="-50" y="490" />
              <mxPoint x="-420" y="490" />
            </Array>
          </mxGeometry>
        </mxCell>
        <mxCell id="1v43-9IHqfWxljv2G6Mm-66" value="" style="rounded=0;html=1;labelBackgroundColor=none;endArrow=none;edgeStyle=elbowEdgeStyle;elbow=vertical;startArrow=sysMLPackCont;startSize=12;" edge="1" parent="1" source="1v43-9IHqfWxljv2G6Mm-44" target="1v43-9IHqfWxljv2G6Mm-59">
          <mxGeometry relative="1" as="geometry">
            <mxPoint x="-440" y="300" as="sourcePoint" />
            <mxPoint x="-370" y="560" as="targetPoint" />
            <Array as="points">
              <mxPoint x="-270" y="440" />
            </Array>
          </mxGeometry>
        </mxCell>
        <mxCell id="1v43-9IHqfWxljv2G6Mm-67" value="" style="rounded=0;html=1;labelBackgroundColor=none;endArrow=none;edgeStyle=elbowEdgeStyle;elbow=vertical;startArrow=sysMLPackCont;startSize=12;" edge="1" parent="1" source="1v43-9IHqfWxljv2G6Mm-44" target="1v43-9IHqfWxljv2G6Mm-58">
          <mxGeometry relative="1" as="geometry">
            <mxPoint x="-260" y="320" as="sourcePoint" />
            <mxPoint x="-920" y="520" as="targetPoint" />
            <Array as="points">
              <mxPoint x="-490" y="490" />
            </Array>
          </mxGeometry>
        </mxCell>
        <mxCell id="1v43-9IHqfWxljv2G6Mm-68" value="" style="rounded=0;html=1;labelBackgroundColor=none;endArrow=none;edgeStyle=elbowEdgeStyle;elbow=vertical;startArrow=sysMLPackCont;startSize=12;" edge="1" parent="1" source="1v43-9IHqfWxljv2G6Mm-44" target="1v43-9IHqfWxljv2G6Mm-57">
          <mxGeometry relative="1" as="geometry">
            <mxPoint x="-260" y="320" as="sourcePoint" />
            <mxPoint x="-1140" y="520" as="targetPoint" />
            <Array as="points">
              <mxPoint x="-710" y="490" />
            </Array>
          </mxGeometry>
        </mxCell>
        <mxCell id="1v43-9IHqfWxljv2G6Mm-69" value="" style="rounded=0;html=1;labelBackgroundColor=none;endArrow=none;edgeStyle=elbowEdgeStyle;elbow=vertical;startArrow=sysMLPackCont;startSize=12;" edge="1" parent="1" source="1v43-9IHqfWxljv2G6Mm-44" target="1v43-9IHqfWxljv2G6Mm-56">
          <mxGeometry relative="1" as="geometry">
            <mxPoint x="-380" y="310" as="sourcePoint" />
            <mxPoint x="-1480" y="510" as="targetPoint" />
            <Array as="points">
              <mxPoint x="-930" y="490" />
            </Array>
          </mxGeometry>
        </mxCell>
        <mxCell id="1v43-9IHqfWxljv2G6Mm-70" value="&lt;p style=&quot;margin:0px;margin-top:4px;text-align:center;&quot;&gt;&amp;lt;&amp;lt;Func Req&amp;gt;&amp;gt;&lt;br&gt;&lt;b&gt;Register Patient&lt;/b&gt;&lt;/p&gt;&lt;hr&gt;&lt;p&gt;&lt;/p&gt;&lt;p style=&quot;margin:0px;margin-left:8px;text-align:left;&quot;&gt;text=&quot;The system shall do&quot;&lt;br&gt;Id=&quot;13&quot;&lt;/p&gt;" style="shape=rect;overflow=fill;html=1;whiteSpace=wrap;align=center;" vertex="1" parent="1">
          <mxGeometry x="-130" y="380" width="200" height="100" as="geometry" />
        </mxCell>
        <mxCell id="1v43-9IHqfWxljv2G6Mm-71" value="&lt;p style=&quot;margin:0px;margin-top:4px;text-align:center;&quot;&gt;&amp;lt;&amp;lt;Func Req&amp;gt;&amp;gt;&lt;br&gt;&lt;b&gt;Register Doctor&lt;/b&gt;&lt;/p&gt;&lt;hr&gt;&lt;p&gt;&lt;/p&gt;&lt;p style=&quot;margin:0px;margin-left:8px;text-align:left;&quot;&gt;text=&quot;The system shall do&quot;&lt;br&gt;Id=&quot;14&quot;&lt;/p&gt;" style="shape=rect;overflow=fill;html=1;whiteSpace=wrap;align=center;" vertex="1" parent="1">
          <mxGeometry x="90" y="380" width="200" height="100" as="geometry" />
        </mxCell>
        <mxCell id="1v43-9IHqfWxljv2G6Mm-72" value="&lt;p style=&quot;margin:0px;margin-top:4px;text-align:center;&quot;&gt;&amp;lt;&amp;lt;Func Req&amp;gt;&amp;gt;&lt;br&gt;&lt;b&gt;Schedule Appointment&lt;/b&gt;&lt;/p&gt;&lt;hr&gt;&lt;p&gt;&lt;/p&gt;&lt;p style=&quot;margin:0px;margin-left:8px;text-align:left;&quot;&gt;text=&quot;The system shall do&quot;&lt;br&gt;Id=&quot;15&quot;&lt;/p&gt;" style="shape=rect;overflow=fill;html=1;whiteSpace=wrap;align=center;" vertex="1" parent="1">
          <mxGeometry x="310" y="380" width="200" height="100" as="geometry" />
        </mxCell>
        <mxCell id="1v43-9IHqfWxljv2G6Mm-80" value="" style="rounded=0;html=1;labelBackgroundColor=none;endArrow=none;edgeStyle=elbowEdgeStyle;elbow=vertical;startArrow=sysMLPackCont;startSize=12;exitX=0.5;exitY=1;exitDx=0;exitDy=0;" edge="1" parent="1" source="1v43-9IHqfWxljv2G6Mm-45" target="1v43-9IHqfWxljv2G6Mm-70">
          <mxGeometry relative="1" as="geometry">
            <mxPoint x="60" y="320" as="sourcePoint" />
            <mxPoint x="60" y="390" as="targetPoint" />
            <Array as="points">
              <mxPoint x="-40" y="350" />
            </Array>
          </mxGeometry>
        </mxCell>
        <mxCell id="1v43-9IHqfWxljv2G6Mm-81" value="" style="rounded=0;html=1;labelBackgroundColor=none;endArrow=none;edgeStyle=elbowEdgeStyle;elbow=vertical;startArrow=sysMLPackCont;startSize=12;exitX=0.5;exitY=1;exitDx=0;exitDy=0;" edge="1" parent="1" source="1v43-9IHqfWxljv2G6Mm-45">
          <mxGeometry relative="1" as="geometry">
            <mxPoint x="139.99999999999955" y="310" as="sourcePoint" />
            <mxPoint x="189.99999999999955" y="380" as="targetPoint" />
            <Array as="points">
              <mxPoint x="230" y="350" />
            </Array>
          </mxGeometry>
        </mxCell>
        <mxCell id="1v43-9IHqfWxljv2G6Mm-82" value="" style="rounded=0;html=1;labelBackgroundColor=none;endArrow=none;edgeStyle=elbowEdgeStyle;elbow=vertical;startArrow=sysMLPackCont;startSize=12;" edge="1" parent="1" source="1v43-9IHqfWxljv2G6Mm-45" target="1v43-9IHqfWxljv2G6Mm-72">
          <mxGeometry relative="1" as="geometry">
            <mxPoint x="250" y="300" as="sourcePoint" />
            <mxPoint x="389.99999999999955" y="370" as="targetPoint" />
            <Array as="points">
              <mxPoint x="240" y="350" />
            </Array>
          </mxGeometry>
        </mxCell>
        <mxCell id="1v43-9IHqfWxljv2G6Mm-84" value="" style="rounded=0;html=1;labelBackgroundColor=none;endArrow=none;edgeStyle=elbowEdgeStyle;elbow=vertical;startArrow=sysMLPackCont;startSize=12;" edge="1" parent="1" source="1v43-9IHqfWxljv2G6Mm-1" target="1v43-9IHqfWxljv2G6Mm-43">
          <mxGeometry relative="1" as="geometry">
            <mxPoint x="-180" y="60" as="sourcePoint" />
            <mxPoint x="-1500" y="260" as="targetPoint" />
            <Array as="points">
              <mxPoint x="-590" y="220" />
            </Array>
          </mxGeometry>
        </mxCell>
        <mxCell id="1v43-9IHqfWxljv2G6Mm-85" value="" style="rounded=0;html=1;labelBackgroundColor=none;endArrow=none;edgeStyle=elbowEdgeStyle;elbow=vertical;startArrow=sysMLPackCont;startSize=12;" edge="1" parent="1" source="1v43-9IHqfWxljv2G6Mm-1" target="1v43-9IHqfWxljv2G6Mm-44">
          <mxGeometry relative="1" as="geometry">
            <mxPoint x="-170" y="200" as="sourcePoint" />
            <mxPoint x="-490" y="260" as="targetPoint" />
            <Array as="points">
              <mxPoint x="-270" y="230" />
            </Array>
          </mxGeometry>
        </mxCell>
        <mxCell id="1v43-9IHqfWxljv2G6Mm-86" value="" style="rounded=0;html=1;labelBackgroundColor=none;endArrow=none;edgeStyle=elbowEdgeStyle;elbow=vertical;startArrow=sysMLPackCont;startSize=12;" edge="1" parent="1" source="1v43-9IHqfWxljv2G6Mm-1" target="1v43-9IHqfWxljv2G6Mm-45">
          <mxGeometry relative="1" as="geometry">
            <mxPoint x="-40" y="150" as="sourcePoint" />
            <mxPoint x="-40" y="210" as="targetPoint" />
            <Array as="points">
              <mxPoint x="50" y="220" />
            </Array>
          </mxGeometry>
        </mxCell>
        <mxCell id="1v43-9IHqfWxljv2G6Mm-88" value="&lt;p style=&quot;margin:0px;margin-top:4px;text-align:center;&quot;&gt;&amp;lt;&amp;lt;requirement&amp;gt;&amp;gt;&lt;br&gt;&lt;b&gt;Quality NFR&#39;s&lt;/b&gt;&lt;/p&gt;&lt;hr&gt;&lt;p&gt;&lt;/p&gt;&lt;p style=&quot;margin:0px;margin-left:8px;text-align:left;&quot;&gt;&lt;br&gt;&lt;/p&gt;" style="shape=rect;overflow=fill;html=1;whiteSpace=wrap;align=center;" vertex="1" parent="1">
          <mxGeometry x="710" y="240" width="200" height="60" as="geometry" />
        </mxCell>
        <mxCell id="1v43-9IHqfWxljv2G6Mm-89" value="&lt;p style=&quot;margin:0px;margin-top:4px;text-align:center;&quot;&gt;&amp;lt;&amp;lt;requirement&amp;gt;&amp;gt;&lt;br&gt;&lt;b&gt;Maintainability&lt;/b&gt;&lt;/p&gt;&lt;hr&gt;&lt;p&gt;&lt;/p&gt;&lt;p style=&quot;margin:0px;margin-left:8px;text-align:left;&quot;&gt;text=&quot;The system shall do&quot;&lt;br&gt;Id=&quot;14&quot;&lt;/p&gt;" style="shape=rect;overflow=fill;html=1;whiteSpace=wrap;align=center;" vertex="1" parent="1">
          <mxGeometry x="680" y="350" width="200" height="100" as="geometry" />
        </mxCell>
        <mxCell id="1v43-9IHqfWxljv2G6Mm-90" value="" style="rounded=0;html=1;labelBackgroundColor=none;endArrow=none;edgeStyle=elbowEdgeStyle;elbow=vertical;startArrow=sysMLPackCont;startSize=12;" edge="1" parent="1" source="1v43-9IHqfWxljv2G6Mm-2" target="1v43-9IHqfWxljv2G6Mm-1">
          <mxGeometry relative="1" as="geometry">
            <mxPoint x="370" y="100" as="sourcePoint" />
            <mxPoint x="50" y="160" as="targetPoint" />
            <Array as="points">
              <mxPoint x="-110" y="100" />
            </Array>
          </mxGeometry>
        </mxCell>
        <mxCell id="1v43-9IHqfWxljv2G6Mm-91" value="" style="rounded=0;html=1;labelBackgroundColor=none;endArrow=none;edgeStyle=elbowEdgeStyle;elbow=vertical;startArrow=sysMLPackCont;startSize=12;" edge="1" parent="1" source="1v43-9IHqfWxljv2G6Mm-2" target="1v43-9IHqfWxljv2G6Mm-4">
          <mxGeometry relative="1" as="geometry">
            <mxPoint x="1105" y="90" as="sourcePoint" />
            <mxPoint x="400" y="160" as="targetPoint" />
            <Array as="points">
              <mxPoint x="1160" y="100" />
            </Array>
          </mxGeometry>
        </mxCell>
      </root>
    </mxGraphModel>
  </diagram>
</mxfile>
